<svg width="378" height="87" viewBox="0 0 378 87" fill="none" xmlns="http://www.w3.org/2000/svg">
<mask id="mask0_256_1469" style="mask-type:luminance" maskUnits="userSpaceOnUse" x="0" y="0" width="378" height="87">
<path d="M377.751 0H0V86.7243H377.751V0Z" fill="white"/>
</mask>
<g mask="url(#mask0_256_1469)">
<path fill-rule="evenodd" clip-rule="evenodd" d="M146.32 39.1226L156.579 34.5801L157.749 45.5689L155.022 43.622C150.216 54.6975 139.177 62.4416 126.32 62.4416C125.498 62.4416 124.675 62.3983 123.852 62.3551C134.328 58.4181 143.29 51.9718 150.086 41.6319L146.32 39.1226Z" fill="url(#paint0_linear_256_1469)"/>
<path fill-rule="evenodd" clip-rule="evenodd" d="M138.053 21.6859L152.771 12.168L154.98 28.7378L150.65 26.7044C142.685 41.2841 129.655 56.4695 118.4 58.4596C112.338 59.8874 105.542 55.0851 102.555 51.451C113.81 55.6908 126.149 53.1382 143.248 23.676L138.053 21.6859Z" fill="url(#paint1_linear_256_1469)"/>
<path fill-rule="evenodd" clip-rule="evenodd" d="M121.298 29.6463L117.141 27.2236L129.912 20.7773L131.167 34.5783L127.532 32.6747C123.072 41.5005 115.929 47.6439 107.704 48.5092C103.549 48.9418 99.5659 47.7737 97.0117 42.0629C102.639 46.2161 114.155 43.88 121.298 29.6463Z" fill="url(#paint2_linear_256_1469)"/>
<path fill-rule="evenodd" clip-rule="evenodd" d="M119.612 3.42952C125.413 1.39615 131.43 1.26636 137.707 2.13162C134.157 0.747194 130.347 0.0117188 126.322 0.0117188C109.092 0.0117188 95.1094 13.9858 95.1094 31.2046C95.3259 34.0599 97.0575 36.6124 99.6982 37.1316C103.335 37.694 106.798 34.7088 109.871 30.0365L112.209 31.6372L112.426 22.8115L104.503 26.7485L106.884 27.9598C105.11 30.4258 102.858 32.5025 101.213 32.1996C99.2653 31.8103 99.0055 28.7817 99.8281 24.1959C102.079 14.7645 110.607 6.631 119.612 3.42952Z" fill="url(#paint3_linear_256_1469)"/>
<path d="M37.2871 -2.84766V54.938H29.9401L6.78763 10.3684V54.938H-0.519531V-2.84766H6.78763L30.0594 41.8409V-2.84766H37.2871Z" fill="url(#paint4_linear_256_1469)"/>
<path d="M84.6888 48.707V54.938H59.5903V48.707H84.6888ZM60.9008 -2.84766V54.938H53.5938V-2.84766H60.9008ZM81.3133 21.9969V28.228H59.5903V21.9969H81.3133ZM84.2917 -2.84766V3.42303H59.5903V-2.84766H84.2917Z" fill="url(#paint5_linear_256_1469)"/>
<path d="M186.769 -2.84766V54.938H179.541V-2.84766H186.769ZM201.98 -2.84766V3.42303H164.371V-2.84766H201.98Z" fill="url(#paint6_linear_256_1469)"/>
<path d="M248.153 48.707V54.938H223.055V48.707H248.153ZM224.365 -2.84766V54.938H217.059V-2.84766H224.365ZM244.779 21.9969V28.228H223.055V21.9969H244.779ZM247.757 -2.84766V3.42303H223.055V-2.84766H247.757Z" fill="url(#paint7_linear_256_1469)"/>
<path d="M262.941 -2.84766H279.104C282.864 -2.84766 286.014 -2.18619 288.556 -0.863265C291.124 0.459666 293.057 2.41761 294.354 5.01055C295.677 7.57703 296.339 10.7388 296.339 14.4959C296.339 17.1419 295.903 19.5628 295.029 21.7588C294.155 23.9285 292.885 25.7805 291.217 27.3152C289.549 28.8233 287.523 29.9478 285.14 30.6886L283.155 31.5221H268.74L268.66 25.291H279.025C281.249 25.291 283.103 24.8148 284.585 23.8623C286.067 22.8833 287.179 21.5736 287.92 19.9332C288.661 18.2928 289.033 16.4803 289.033 14.4959C289.033 12.2734 288.702 10.3287 288.039 8.66184C287.377 6.99494 286.319 5.7117 284.863 4.81211C283.432 3.88605 281.514 3.42303 279.104 3.42303H270.248V54.938H262.941V-2.84766ZM290.7 54.938L279.184 28.7439L286.769 28.7043L298.524 54.4617V54.938H290.7Z" fill="url(#paint8_linear_256_1469)"/>
<path d="M321.479 -2.84766V54.938H314.172V-2.84766H321.479Z" fill="url(#paint9_linear_256_1469)"/>
<path d="M364.709 36.5632H372.017C371.831 40.532 371.024 43.9585 369.594 46.8424C368.191 49.6999 366.139 51.896 363.439 53.4306C360.765 54.9652 357.416 55.7325 353.391 55.7325C350.505 55.7325 347.897 55.1636 345.568 54.026C343.238 52.8882 341.24 51.261 339.571 49.1444C337.929 47.0012 336.672 44.4347 335.799 41.4449C334.925 38.455 334.488 35.0948 334.488 31.3641V20.688C334.488 16.9839 334.925 13.6368 335.799 10.647C336.699 7.6572 337.983 5.10394 339.651 2.98725C341.345 0.844108 343.396 -0.796327 345.807 -1.93405C348.242 -3.07177 350.995 -3.64062 354.066 -3.64062C357.826 -3.64062 361.003 -2.88655 363.598 -1.37842C366.219 0.103266 368.23 2.2861 369.633 5.17009C371.064 8.02762 371.858 11.5333 372.017 15.6874H364.709C364.524 12.6447 364.048 10.1708 363.279 8.26575C362.512 6.33427 361.373 4.91873 359.865 4.01914C358.381 3.09309 356.449 2.63006 354.066 2.63006C351.948 2.63006 350.108 3.05341 348.546 3.90008C347.01 4.74675 345.74 5.96385 344.733 7.55136C343.754 9.11242 343.013 11.0042 342.51 13.2268C342.033 15.4228 341.795 17.8834 341.795 20.6087V31.3641C341.795 33.9041 341.993 36.2721 342.391 38.4682C342.815 40.6643 343.477 42.5958 344.376 44.2627C345.303 45.9032 346.508 47.1864 347.99 48.1124C349.473 49.0385 351.273 49.5015 353.391 49.5015C356.065 49.5015 358.183 49.0649 359.746 48.1918C361.307 47.3186 362.459 45.9296 363.2 44.0245C363.968 42.1196 364.471 39.6324 364.709 36.5632Z" fill="url(#paint10_linear_256_1469)"/>
<path d="M78.0028 71.3482V85.7464H76.2019V71.3482H78.0028ZM81.7925 71.3482V72.9107H72.4219V71.3482H81.7925ZM91.6678 84.1938V85.7464H85.4141V84.1938H91.6678ZM85.7406 71.3482V85.7464H83.9199V71.3482H85.7406ZM90.8267 77.5386V79.0912H85.4141V77.5386H90.8267ZM91.5688 71.3482V72.9107H85.4141V71.3482H91.5688ZM101.207 81.1678H103.027C102.981 82.1567 102.78 83.0104 102.424 83.729C102.074 84.441 101.563 84.9882 100.89 85.3705C100.224 85.753 99.3893 85.9442 98.3866 85.9442C97.6675 85.9442 97.0178 85.8023 96.4372 85.5189C95.8567 85.2355 95.3587 84.83 94.9431 84.3026C94.5341 83.7686 94.2208 83.1291 94.003 82.3842C93.7854 81.6392 93.6765 80.8019 93.6765 79.8724V77.2122C93.6765 76.2893 93.7854 75.4553 94.003 74.7104C94.2273 73.9654 94.5472 73.3293 94.9628 72.8018C95.385 72.2679 95.8962 71.8591 96.4966 71.5757C97.1036 71.2921 97.7896 71.1504 98.5547 71.1504C99.4915 71.1504 100.283 71.3382 100.93 71.7141C101.583 72.0832 102.084 72.6271 102.434 73.3458C102.79 74.0577 102.988 74.9312 103.027 75.9663H101.207C101.161 75.2081 101.042 74.5917 100.85 74.1171C100.659 73.6358 100.375 73.283 99.9995 73.0589C99.6301 72.8282 99.1485 72.7128 98.5547 72.7128C98.027 72.7128 97.5686 72.8183 97.1794 73.0292C96.7968 73.2402 96.4801 73.5435 96.2295 73.9391C95.9854 74.328 95.8006 74.7994 95.6753 75.3532C95.5566 75.9004 95.4972 76.5135 95.4972 77.1924V79.8724C95.4972 80.5053 95.5467 81.0953 95.6456 81.6425C95.7511 82.1897 95.9161 82.6709 96.1403 83.0862C96.3713 83.495 96.6714 83.8147 97.0408 84.0455C97.4102 84.2762 97.8589 84.3916 98.3866 84.3916C99.0528 84.3916 99.5806 84.2828 99.9698 84.0652C100.359 83.8477 100.646 83.5015 100.831 83.0269C101.022 82.5522 101.147 81.9326 101.207 81.1678ZM113.308 77.5386V79.0912H107.065V77.5386H113.308ZM107.312 71.3482V85.7464H105.491V71.3482H107.312ZM114.921 71.3482V85.7464H113.101V71.3482H114.921ZM127.478 71.3482V85.7464H125.648L119.878 74.6412V85.7464H118.058V71.3482H119.878L125.678 82.4831V71.3482H127.478ZM139.996 77.3013V79.8031C139.996 80.8184 139.884 81.7117 139.659 82.4831C139.441 83.2477 139.122 83.8872 138.699 84.4015C138.276 84.9157 137.769 85.3014 137.176 85.5585C136.581 85.8156 135.912 85.9442 135.167 85.9442C134.447 85.9442 133.791 85.8156 133.198 85.5585C132.604 85.3014 132.092 84.9157 131.664 84.4015C131.235 83.8872 130.902 83.2477 130.664 82.4831C130.434 81.7117 130.318 80.8184 130.318 79.8031V77.3013C130.318 76.286 130.434 75.396 130.664 74.6313C130.895 73.86 131.225 73.2172 131.653 72.7029C132.083 72.1887 132.594 71.803 133.187 71.5459C133.782 71.2823 134.438 71.1504 135.156 71.1504C135.902 71.1504 136.572 71.2823 137.165 71.5459C137.766 71.803 138.273 72.1887 138.689 72.7029C139.111 73.2172 139.435 73.86 139.659 74.6313C139.884 75.396 139.996 76.286 139.996 77.3013ZM138.194 79.8031V77.2815C138.194 76.4904 138.129 75.8113 137.997 75.2444C137.864 74.6708 137.671 74.2027 137.413 73.8402C137.155 73.4775 136.839 73.2106 136.463 73.0392C136.086 72.8612 135.651 72.7721 135.156 72.7721C134.688 72.7721 134.266 72.8612 133.891 73.0392C133.521 73.2106 133.204 73.4775 132.94 73.8402C132.676 74.2027 132.471 74.6708 132.327 75.2444C132.188 75.8113 132.118 76.4904 132.118 77.2815V79.8031C132.118 80.6009 132.188 81.2865 132.327 81.86C132.471 82.427 132.676 82.895 132.94 83.2642C133.21 83.6269 133.534 83.8972 133.91 84.0752C134.286 84.2465 134.705 84.3323 135.167 84.3323C135.661 84.3323 136.097 84.2465 136.472 84.0752C136.855 83.8972 137.172 83.6269 137.423 83.2642C137.68 82.895 137.871 82.427 137.997 81.86C138.129 81.2865 138.194 80.6009 138.194 79.8031ZM150.287 84.1938V85.7464H144.31V84.1938H150.287ZM144.636 71.3482V85.7464H142.816V71.3482H144.636ZM161.171 77.3013V79.8031C161.171 80.8184 161.058 81.7117 160.834 82.4831C160.616 83.2477 160.297 83.8872 159.874 84.4015C159.452 84.9157 158.944 85.3014 158.351 85.5585C157.757 85.8156 157.087 85.9442 156.341 85.9442C155.623 85.9442 154.967 85.8156 154.372 85.5585C153.779 85.3014 153.268 84.9157 152.839 84.4015C152.41 83.8872 152.077 83.2477 151.84 82.4831C151.608 81.7117 151.494 80.8184 151.494 79.8031V77.3013C151.494 76.286 151.608 75.396 151.84 74.6313C152.07 73.86 152.4 73.2172 152.829 72.7029C153.258 72.1887 153.769 71.803 154.363 71.5459C154.957 71.2823 155.613 71.1504 156.332 71.1504C157.078 71.1504 157.747 71.2823 158.34 71.5459C158.942 71.803 159.449 72.1887 159.865 72.7029C160.286 73.2172 160.611 73.86 160.834 74.6313C161.058 75.396 161.171 76.286 161.171 77.3013ZM159.37 79.8031V77.2815C159.37 76.4904 159.304 75.8113 159.172 75.2444C159.04 74.6708 158.845 74.2027 158.588 73.8402C158.331 73.4775 158.014 73.2106 157.638 73.0392C157.262 72.8612 156.827 72.7721 156.332 72.7721C155.864 72.7721 155.441 72.8612 155.065 73.0392C154.697 73.2106 154.379 73.4775 154.116 73.8402C153.851 74.2027 153.647 74.6708 153.502 75.2444C153.363 75.8113 153.295 76.4904 153.295 77.2815V79.8031C153.295 80.6009 153.363 81.2865 153.502 81.86C153.647 82.427 153.851 82.895 154.116 83.2642C154.386 83.6269 154.709 83.8972 155.085 84.0752C155.462 84.2465 155.88 84.3323 156.341 84.3323C156.836 84.3323 157.272 84.2465 157.648 84.0752C158.031 83.8972 158.347 83.6269 158.598 83.2642C158.856 82.895 159.047 82.427 159.172 81.86C159.304 81.2865 159.37 80.6009 159.37 79.8031ZM173.015 78.5769V83.9466C172.857 84.1576 172.616 84.4212 172.293 84.7377C171.976 85.0541 171.531 85.3344 170.957 85.5782C170.384 85.8221 169.631 85.9442 168.701 85.9442C167.955 85.9442 167.272 85.8188 166.653 85.5684C166.039 85.3179 165.508 84.9421 165.059 84.441C164.617 83.9334 164.275 83.3038 164.031 82.5522C163.787 81.7942 163.664 80.9074 163.664 79.8922V77.1924C163.664 76.1838 163.766 75.3004 163.971 74.5422C164.175 73.7841 164.479 73.1545 164.882 72.6535C165.291 72.1525 165.795 71.7767 166.395 71.5262C167.002 71.2756 167.708 71.1504 168.513 71.1504C169.443 71.1504 170.235 71.3251 170.888 71.6745C171.54 72.0239 172.046 72.5282 172.402 73.1874C172.765 73.8467 172.969 74.6378 173.015 75.5608H171.195C171.149 74.9675 171.023 74.4598 170.819 74.038C170.614 73.6094 170.324 73.283 169.947 73.0589C169.571 72.8282 169.094 72.7128 168.513 72.7128C167.959 72.7128 167.49 72.8051 167.108 72.9898C166.725 73.1743 166.412 73.4512 166.168 73.8204C165.93 74.1895 165.756 74.6543 165.644 75.2147C165.538 75.7751 165.484 76.4277 165.484 77.1727V79.8922C165.484 80.6569 165.561 81.3228 165.712 81.8897C165.865 82.4566 166.079 82.9247 166.356 83.2939C166.639 83.6631 166.979 83.94 167.374 84.1246C167.771 84.3026 168.216 84.3916 168.711 84.3916C169.271 84.3916 169.713 84.3323 170.036 84.2136C170.359 84.095 170.607 83.9598 170.779 83.8081C170.957 83.6565 171.098 83.5345 171.205 83.4422V80.1196H168.562V78.5769H173.015ZM177.863 71.3482V85.7464H176.043V71.3482H177.863ZM188.778 84.1938V85.7464H182.524V84.1938H188.778ZM182.851 71.3482V85.7464H181.031V71.3482H182.851ZM187.936 77.5386V79.0912H182.524V77.5386H187.936ZM188.679 71.3482V72.9107H182.524V71.3482H188.679ZM197.406 82.1072C197.406 81.771 197.367 81.4743 197.288 81.2172C197.209 80.9536 197.07 80.7163 196.872 80.5053C196.674 80.2943 196.397 80.0932 196.041 79.902C195.684 79.7109 195.233 79.5164 194.686 79.3185C194.092 79.1076 193.554 78.8736 193.073 78.6165C192.59 78.3527 192.178 78.0528 191.836 77.7166C191.499 77.3804 191.239 76.9947 191.054 76.5596C190.869 76.1245 190.777 75.6268 190.777 75.0664C190.777 74.506 190.872 73.9885 191.064 73.5138C191.262 73.0392 191.539 72.6271 191.895 72.2777C192.258 71.9217 192.694 71.6448 193.201 71.4471C193.71 71.2493 194.277 71.1504 194.903 71.1504C195.84 71.1504 196.628 71.358 197.268 71.7734C197.915 72.1821 198.402 72.7194 198.732 73.3853C199.062 74.0445 199.227 74.7499 199.227 75.5015H197.406C197.406 74.9609 197.318 74.4829 197.139 74.0676C196.967 73.6457 196.697 73.316 196.328 73.0787C195.965 72.8348 195.49 72.7128 194.903 72.7128C194.375 72.7128 193.94 72.8151 193.597 73.0194C193.261 73.2237 193.01 73.5006 192.845 73.85C192.687 74.1994 192.608 74.5983 192.608 75.0466C192.608 75.3499 192.66 75.6268 192.766 75.8772C192.871 76.1212 193.033 76.3486 193.25 76.5596C193.475 76.7706 193.752 76.9651 194.082 77.1431C194.419 77.3211 194.814 77.4925 195.27 77.6573C195.975 77.888 196.579 78.1451 197.08 78.4286C197.581 78.7121 197.99 79.0318 198.307 79.3878C198.624 79.7372 198.855 80.1361 198.999 80.5844C199.152 81.026 199.227 81.5271 199.227 82.0874C199.227 82.6742 199.129 83.2049 198.931 83.6795C198.739 84.1543 198.459 84.5597 198.09 84.8959C197.72 85.2321 197.274 85.4926 196.753 85.6771C196.232 85.8551 195.645 85.9442 194.992 85.9442C194.424 85.9442 193.868 85.8518 193.32 85.6673C192.778 85.4826 192.287 85.2058 191.846 84.8365C191.404 84.4673 191.051 84.0125 190.786 83.4719C190.523 82.9247 190.391 82.2919 190.391 81.5732H192.211C192.211 82.0677 192.285 82.4929 192.429 82.8489C192.574 83.1983 192.776 83.4884 193.033 83.7191C193.29 83.9499 193.584 84.1213 193.913 84.2334C194.25 84.3388 194.61 84.3916 194.992 84.3916C195.519 84.3916 195.962 84.2993 196.318 84.1147C196.681 83.9301 196.951 83.6664 197.13 83.3236C197.314 82.9808 197.406 82.5753 197.406 82.1072ZM210.854 80.0998H207.707V78.5472H210.854C211.448 78.5472 211.926 78.4286 212.289 78.1912C212.658 77.9539 212.926 77.6243 213.091 77.2024C213.261 76.7804 213.347 76.2992 213.347 75.7586C213.347 75.2641 213.261 74.7994 213.091 74.3642C212.926 73.9291 212.658 73.5798 212.289 73.316C211.926 73.0457 211.448 72.9107 210.854 72.9107H208.083V85.7464H206.263V71.3482H210.854C211.784 71.3482 212.569 71.5361 213.209 71.9119C213.849 72.2876 214.333 72.8084 214.663 73.4743C215 74.1336 215.169 74.8884 215.169 75.7388C215.169 76.6617 215 77.4496 214.663 78.1023C214.333 78.7549 213.849 79.2526 213.209 79.5955C212.569 79.9317 211.784 80.0998 210.854 80.0998ZM221.462 83.5609L224.924 71.3482H226.904L222.431 85.7464H221.036L221.462 83.5609ZM218.354 71.3482L221.788 83.5609L222.243 85.7464H220.848L216.376 71.3482H218.354ZM233.493 71.3482V85.7464H231.693V71.3482H233.493ZM237.284 71.3482V72.9107H227.913V71.3482H237.284ZM237.126 84.7772C237.126 84.4673 237.221 84.207 237.412 83.9961C237.61 83.7784 237.894 83.6697 238.263 83.6697C238.633 83.6697 238.913 83.7784 239.104 83.9961C239.302 84.207 239.401 84.4673 239.401 84.7772C239.401 85.0805 239.302 85.3376 239.104 85.5485C238.913 85.7595 238.633 85.8651 238.263 85.8651C237.894 85.8651 237.61 85.7595 237.412 85.5485C237.221 85.3376 237.126 85.0805 237.126 84.7772ZM254.719 84.1938V85.7464H248.742V84.1938H254.719ZM249.068 71.3482V85.7464H247.248V71.3482H249.068ZM258.785 71.3482V85.7464H256.984V71.3482H258.785ZM262.575 71.3482V72.9107H253.204V71.3482H262.575ZM267.968 85.7464H265.515L265.534 84.1938H267.968C268.832 84.1938 269.535 84.029 270.076 83.6993C270.617 83.3631 271.016 82.8687 271.273 82.216C271.531 81.5567 271.659 80.7426 271.659 79.7735V77.3111C271.659 76.5464 271.587 75.8872 271.441 75.3334C271.296 74.7795 271.078 74.3247 270.788 73.9687C270.499 73.6127 270.132 73.349 269.69 73.1776C269.248 72.9996 268.73 72.9107 268.137 72.9107H265.464V71.3482H268.137C268.948 71.3482 269.68 71.4768 270.334 71.7339C270.986 71.9843 271.547 72.3635 272.015 72.871C272.484 73.3721 272.84 73.9951 273.084 74.7401C273.335 75.4851 273.46 76.3486 273.46 77.3309V79.7735C273.46 80.7558 273.335 81.6193 273.084 82.3643C272.84 83.1093 272.48 83.7323 272.005 84.2334C271.531 84.7344 270.953 85.1134 270.274 85.3705C269.6 85.6211 268.832 85.7464 267.968 85.7464ZM266.524 71.3482V85.7464H264.703V71.3482H266.524ZM275.142 84.7772C275.142 84.4673 275.237 84.207 275.429 83.9961C275.627 83.7784 275.911 83.6697 276.28 83.6697C276.65 83.6697 276.93 83.7784 277.122 83.9961C277.319 84.207 277.418 84.4673 277.418 84.7772C277.418 85.0805 277.319 85.3376 277.122 85.5485C276.93 85.7595 276.65 85.8651 276.28 85.8651C275.911 85.8651 275.627 85.7595 275.429 85.5485C275.237 85.3376 275.142 85.0805 275.142 84.7772Z" fill="url(#paint11_linear_256_1469)"/>
</g>
<defs>
<linearGradient id="paint0_linear_256_1469" x1="154.542" y1="33.0739" x2="127.738" y2="69.2088" gradientUnits="userSpaceOnUse">
<stop stop-color="#0060AA"/>
<stop offset="1" stop-color="#0E94FB"/>
</linearGradient>
<linearGradient id="paint1_linear_256_1469" x1="150.02" y1="9.65175" x2="104.35" y2="66.6462" gradientUnits="userSpaceOnUse">
<stop stop-color="#0060AA"/>
<stop offset="1" stop-color="#0E94FB"/>
</linearGradient>
<linearGradient id="paint2_linear_256_1469" x1="127.937" y1="19.274" x2="101.253" y2="55.5853" gradientUnits="userSpaceOnUse">
<stop stop-color="#0060AA"/>
<stop offset="1" stop-color="#0E94FB"/>
</linearGradient>
<linearGradient id="paint3_linear_256_1469" x1="133.677" y1="-1.99843" x2="97.332" y2="44.1351" gradientUnits="userSpaceOnUse">
<stop stop-color="#0060AA"/>
<stop offset="1" stop-color="#0E94FB"/>
</linearGradient>
<linearGradient id="paint4_linear_256_1469" x1="39.9151" y1="-25.7505" x2="-44.4386" y2="24.9594" gradientUnits="userSpaceOnUse">
<stop stop-color="#0060AA"/>
<stop offset="1" stop-color="#0E94FB"/>
</linearGradient>
<linearGradient id="paint5_linear_256_1469" x1="81.7474" y1="-5.97121" x2="30.6415" y2="24.5025" gradientUnits="userSpaceOnUse">
<stop stop-color="#0060AA"/>
<stop offset="1" stop-color="#0E94FB"/>
</linearGradient>
<linearGradient id="paint6_linear_256_1469" x1="200.321" y1="-25.7505" x2="124.439" y2="11.7574" gradientUnits="userSpaceOnUse">
<stop stop-color="#0060AA"/>
<stop offset="1" stop-color="#0E94FB"/>
</linearGradient>
<linearGradient id="paint7_linear_256_1469" x1="248.159" y1="-25.7505" x2="173.545" y2="10.133" gradientUnits="userSpaceOnUse">
<stop stop-color="#0060AA"/>
<stop offset="1" stop-color="#0E94FB"/>
</linearGradient>
<linearGradient id="paint8_linear_256_1469" x1="296.076" y1="-25.7505" x2="218.972" y2="13.3911" gradientUnits="userSpaceOnUse">
<stop stop-color="#0060AA"/>
<stop offset="1" stop-color="#0E94FB"/>
</linearGradient>
<linearGradient id="paint9_linear_256_1469" x1="320.788" y1="-5.97121" x2="304.822" y2="-3.73416" gradientUnits="userSpaceOnUse">
<stop stop-color="#0060AA"/>
<stop offset="1" stop-color="#0E94FB"/>
</linearGradient>
<linearGradient id="paint10_linear_256_1469" x1="372.045" y1="-25.7497" x2="291.559" y2="18.3337" gradientUnits="userSpaceOnUse">
<stop stop-color="#0060AA"/>
<stop offset="1" stop-color="#0E94FB"/>
</linearGradient>
<linearGradient id="paint11_linear_256_1469" x1="258.027" y1="70.3507" x2="256.098" y2="99.9687" gradientUnits="userSpaceOnUse">
<stop stop-color="#0060AA"/>
<stop offset="1" stop-color="#0E94FB"/>
</linearGradient>
</defs>
</svg>
