<svg width="56" height="56" viewBox="0 0 56 56" fill="none" xmlns="http://www.w3.org/2000/svg">
<path d="M14.8758 1.89185C14.3398 2.06685 13.4211 3.00748 13.257 3.56529C12.9508 4.59341 13.1695 5.41373 13.9461 6.17935C14.7008 6.94498 15.6195 7.1856 16.5164 6.87935L16.8664 6.7481L18.4961 8.37779L20.1258 10.0075V12.8622V15.7278L19.5242 15.8044C18.7039 15.9028 17.5227 16.5153 16.9648 17.1278C16.3852 17.7403 15.893 18.7684 15.7945 19.534L15.7289 20.1247H14.1758H12.6336L11.4414 18.9325C10.2492 17.7403 10.2492 17.7403 10.3805 17.3903C10.6867 16.4934 10.4461 15.5747 9.68047 14.82C8.57578 13.7044 7.17578 13.7044 6.07109 14.82C4.95547 15.9247 4.95547 17.3247 6.07109 18.4294C6.82578 19.195 7.74453 19.4356 8.64141 19.1294L8.99141 18.9981L10.4352 20.4419L11.868 21.8747H13.8148H15.7508V22.7497V23.6247H12.9727H10.1945L7.89766 25.5278L5.60078 27.4309L5.17422 27.2887C4.22266 26.9387 3.34766 27.1575 2.57109 27.945C1.45547 29.0497 1.45547 30.4497 2.57109 31.5544C3.33672 32.3309 4.15703 32.5497 5.18516 32.2434C5.83047 32.0465 6.69453 31.1606 6.88047 30.4825C7.02266 30.0122 7.00078 29.2684 6.85859 28.8747C6.81484 28.7653 7.40547 28.2075 8.79453 27.0372L10.807 25.3747H13.2789H15.7508V26.2497V27.1247H14.4383H13.1258V27.9997V28.8747H14.4383H15.7508V29.7497V30.6247H11.8133H7.87578V31.4997V32.3747H11.8133H15.7508V33.2497V34.1247H13.3227H10.8836L9.15547 36.7387L7.42734 39.3419L6.76016 39.4075C5.90703 39.484 5.20703 39.9106 4.75859 40.6215C4.46328 41.1137 4.43047 41.2559 4.43047 42.0653C4.43047 42.8856 4.46328 43.0059 4.75859 43.4325C4.94453 43.695 5.30547 44.0559 5.56797 44.2419C5.99453 44.5372 6.11484 44.57 6.93516 44.57C7.74453 44.57 7.88672 44.5372 8.37891 44.2419C9.11172 43.7825 9.52734 43.0934 9.59297 42.1965C9.63672 41.584 9.60391 41.4309 9.30859 40.8512L8.96953 40.195L10.4133 38.0294L11.8461 35.8747H13.782H15.7289L15.7945 36.4653C15.893 37.2309 16.3852 38.259 16.9648 38.8715C17.5227 39.484 18.7039 40.0965 19.5242 40.195L20.1258 40.2715V43.1372V45.9919L18.4961 47.6215L16.8664 49.2512L16.5164 49.12C15.6195 48.8137 14.7008 49.0544 13.9461 49.82C12.8305 50.9247 12.8305 52.3247 13.9461 53.4294C15.0508 54.545 16.4508 54.545 17.5555 53.4294C18.3211 52.6747 18.5617 51.7559 18.2555 50.859L18.1242 50.509L20.0055 48.6278L21.8758 46.7575V43.4981V40.2497H22.7508H23.6258V42.8747V45.4997H24.5008H25.3758V42.8747V40.2497H26.2508H27.1258V43.9903V47.7419L29.7398 49.3715L32.3539 51.0122L32.3977 51.745C32.4852 52.9809 33.1742 53.8669 34.3117 54.2059C36.1711 54.7747 38.0195 53.0575 37.6258 51.1215C37.3852 49.9622 36.4445 49.1419 35.2305 49.0325C34.6945 48.9778 34.4867 49.0215 33.9617 49.2622L33.3273 49.5465L31.107 48.1575L28.8758 46.7684V43.509V40.2497H29.7508H30.6258V41.5622V42.8747H31.5008H32.3758V41.5622V40.2497H33.2508H34.1258V43.7497V47.2497H37.2867H40.4477L40.5789 47.5778C40.7648 48.0372 41.5633 48.7153 42.0883 48.8684C43.3133 49.2403 44.6367 48.6825 45.2602 47.5231C45.5117 47.0747 45.5117 45.6747 45.2602 45.2153C44.8008 44.384 43.7945 43.7497 42.8977 43.7497C41.9898 43.7497 40.8852 44.4278 40.5789 45.1715L40.4477 45.4997H38.1617H35.8758V42.8856V40.2715L36.4773 40.195C37.2977 40.0965 38.4789 39.484 39.0367 38.8715C39.6164 38.259 40.1086 37.2309 40.207 36.4653L40.2727 35.8747H44.0133H47.7539L48.4977 36.6294C49.2305 37.3731 49.2414 37.395 49.1211 37.745C48.5852 39.2872 49.9414 41.1247 51.6258 41.1247C52.982 41.1247 54.2508 39.8559 54.2508 38.4997C54.2508 37.8106 53.9992 37.2528 53.4305 36.695C52.6758 35.9294 51.757 35.6887 50.8711 35.995C50.5102 36.1262 50.4992 36.1153 49.5039 35.12L48.5086 34.1247H44.3742H40.2508V33.2497V32.3747H42.4383H44.6258V31.4997V30.6247H42.4383H40.2508V29.7497V28.8747H42.5477H44.8445L47.3383 27.6387L49.8211 26.3919L50.193 26.6544C51.4945 27.5403 53.2227 27.059 53.9883 25.5934C54.2836 25.0356 54.2617 23.9309 53.9445 23.3403C53.4961 22.4653 52.5445 21.8747 51.6039 21.8747C50.2586 21.8747 49.0008 23.1325 49.0008 24.4887C49.0008 24.8169 48.957 24.8497 46.7039 25.9762L44.407 27.1247H42.3289H40.2508V26.2497V25.3747H41.5633H42.8758V24.4997V23.6247H41.5633H40.2508V22.7497V21.8747H42.1867H44.1336L45.5664 20.4419L47.0102 18.9981L47.3602 19.1294C48.9133 19.6653 50.7508 18.309 50.7508 16.6247C50.7508 15.2684 49.482 13.9997 48.1258 13.9997C47.4367 13.9997 46.8789 14.2512 46.3211 14.82C45.5555 15.5747 45.3148 16.4934 45.6211 17.3903C45.7523 17.7403 45.7523 17.7403 44.5602 18.9325L43.368 20.1247H41.8258H40.2727L40.207 19.534C40.1086 18.7684 39.6164 17.7403 39.0367 17.1278C38.4789 16.5153 37.2977 15.9028 36.4773 15.8044L35.8758 15.7278V14.6122V13.5075L38.3805 11.0028L40.8852 8.4981L41.2352 8.62935C42.7883 9.16529 44.6258 7.80904 44.6258 6.12466C44.6258 4.76842 43.357 3.49966 42.0008 3.49966C41.3117 3.49966 40.7539 3.75123 40.1961 4.31998C39.4305 5.07467 39.1898 5.99342 39.4961 6.89029L39.6273 7.24029L36.8711 9.99654L34.1258 12.7419V14.2512V15.7497H33.2508H32.3758V14.4372V13.1247H31.5008H30.6258V14.4372V15.7497H29.7508H28.8758V12.5887V9.42779L29.2039 9.29654C29.9477 8.99029 30.6258 7.8856 30.6258 6.97779C30.6258 6.08092 29.9914 5.07467 29.1602 4.61529C28.6898 4.36373 27.3008 4.36373 26.8305 4.62623C25.693 5.23873 25.1352 6.56216 25.507 7.78717C25.6602 8.31216 26.3383 9.1106 26.7977 9.29654L27.1258 9.42779V12.5887V15.7497H26.2508H25.3758V14.4372V13.1247H24.5008H23.6258V14.4372V15.7497H22.7508H21.8758V12.5012V9.24185L20.0055 7.37154L18.1242 5.49029L18.2555 5.14029C18.5617 4.24342 18.3211 3.32467 17.5555 2.56998C16.7898 1.79342 15.893 1.57467 14.8758 1.89185ZM16.3523 3.7731C16.8992 4.30904 16.5164 5.24966 15.7508 5.24966C15.3023 5.24966 14.8758 4.8231 14.8758 4.37466C14.8758 3.92623 15.3023 3.49966 15.7508 3.49966C15.9586 3.49966 16.1883 3.5981 16.3523 3.7731ZM42.6023 5.5231C42.7773 5.68716 42.8758 5.91685 42.8758 6.12466C42.8758 6.33248 42.7773 6.56216 42.6023 6.72623C42.4383 6.90123 42.2086 6.99966 42.0008 6.99966C41.793 6.99966 41.5633 6.90123 41.3992 6.72623C41.2242 6.56216 41.1258 6.33248 41.1258 6.12466C41.1258 5.91685 41.2242 5.68716 41.3992 5.5231C41.5633 5.3481 41.793 5.24966 42.0008 5.24966C42.2086 5.24966 42.4383 5.3481 42.6023 5.5231ZM28.6023 6.3981C28.7773 6.56216 28.8758 6.79185 28.8758 6.99966C28.8758 7.20748 28.7773 7.43716 28.6023 7.60123C28.0664 8.1481 27.1258 7.76529 27.1258 6.99966C27.1258 6.55123 27.5523 6.12466 28.0008 6.12466C28.2086 6.12466 28.4383 6.2231 28.6023 6.3981ZM8.47734 16.0231C9.02422 16.559 8.64141 17.4997 7.87578 17.4997C7.42734 17.4997 7.00078 17.0731 7.00078 16.6247C7.00078 16.1762 7.42734 15.7497 7.87578 15.7497C8.08359 15.7497 8.31328 15.8481 8.47734 16.0231ZM48.7273 16.0231C48.9023 16.1872 49.0008 16.4169 49.0008 16.6247C49.0008 16.8325 48.9023 17.0622 48.7273 17.2262C48.5633 17.4012 48.3336 17.4997 48.1258 17.4997C47.918 17.4997 47.6883 17.4012 47.5242 17.2262C47.3492 17.0622 47.2508 16.8325 47.2508 16.6247C47.2508 16.4169 47.3492 16.1872 47.5242 16.0231C47.6883 15.8481 47.918 15.7497 48.1258 15.7497C48.3336 15.7497 48.5633 15.8481 48.7273 16.0231ZM36.6852 17.6309C37.2867 17.8059 38.1945 18.7137 38.3695 19.3153C38.5555 19.9606 38.5555 36.0387 38.3695 36.684C38.1945 37.2856 37.2867 38.1934 36.6852 38.3684C36.0398 38.5544 19.9617 38.5544 19.3164 38.3684C18.7148 38.1934 17.807 37.2856 17.632 36.684C17.4461 36.0387 17.4461 19.9606 17.632 19.3153C17.7961 18.7575 18.7148 17.8169 19.2508 17.6419C19.8195 17.4669 36.0727 17.4559 36.6852 17.6309ZM52.2273 23.8981C52.4023 24.0622 52.5008 24.2919 52.5008 24.4997C52.5008 24.7075 52.4023 24.9372 52.2273 25.1012C52.0633 25.2762 51.8336 25.3747 51.6258 25.3747C51.418 25.3747 51.1883 25.2762 51.0242 25.1012C50.8492 24.9372 50.7508 24.7075 50.7508 24.4997C50.7508 24.2919 50.8492 24.0622 51.0242 23.8981C51.1883 23.7231 51.418 23.6247 51.6258 23.6247C51.8336 23.6247 52.0633 23.7231 52.2273 23.8981ZM4.97734 29.1481C5.52422 29.684 5.14141 30.6247 4.37578 30.6247C3.92734 30.6247 3.50078 30.1981 3.50078 29.7497C3.50078 29.3012 3.92734 28.8747 4.37578 28.8747C4.58359 28.8747 4.81328 28.9731 4.97734 29.1481ZM52.2273 37.8981C52.7742 38.434 52.3914 39.3747 51.6258 39.3747C51.1773 39.3747 50.7508 38.9481 50.7508 38.4997C50.7508 38.0512 51.1773 37.6247 51.6258 37.6247C51.8336 37.6247 52.0633 37.7231 52.2273 37.8981ZM7.60234 41.3981C7.77734 41.5622 7.87578 41.7919 7.87578 41.9997C7.87578 42.2075 7.77734 42.4372 7.60234 42.6012C7.06641 43.1481 6.12578 42.7653 6.12578 41.9997C6.12578 41.5512 6.55234 41.1247 7.00078 41.1247C7.20859 41.1247 7.43828 41.2231 7.60234 41.3981ZM43.4773 45.7731C44.0242 46.309 43.6414 47.2497 42.8758 47.2497C42.4273 47.2497 42.0008 46.8231 42.0008 46.3747C42.0008 45.9262 42.4273 45.4997 42.8758 45.4997C43.0836 45.4997 43.3133 45.5981 43.4773 45.7731ZM16.3523 51.0231C16.8992 51.559 16.5164 52.4997 15.7508 52.4997C15.3023 52.4997 14.8758 52.0731 14.8758 51.6247C14.8758 51.1762 15.3023 50.7497 15.7508 50.7497C15.9586 50.7497 16.1883 50.8481 16.3523 51.0231ZM35.6023 51.0231C36.1492 51.559 35.7664 52.4997 35.0008 52.4997C34.5523 52.4997 34.1258 52.0731 34.1258 51.6247C34.1258 51.1762 34.5523 50.7497 35.0008 50.7497C35.2086 50.7497 35.4383 50.8481 35.6023 51.0231Z" fill="url(#paint0_linear_256_1372)"/>
<path d="M26.9723 19.3594C26.2832 19.5344 25.2988 20.125 24.8176 20.6391C24.577 20.9016 24.216 21.4484 24.041 21.8422C23.7566 22.4438 23.691 22.7281 23.6473 23.6359C23.5926 24.6969 23.5926 24.7078 23.2754 24.8391C22.8379 25.0141 22.1598 25.8234 22.0066 26.3375C21.8207 26.95 21.8207 34.3109 22.0066 34.9344C22.1816 35.5359 23.0895 36.4437 23.691 36.6188C24.0082 36.7063 25.2988 36.75 28.0223 36.75C32.5285 36.75 32.616 36.7391 33.3926 35.875C33.6551 35.5906 33.9285 35.1531 33.9941 34.9125C34.1801 34.3109 34.1801 26.9391 33.9941 26.3375C33.841 25.8234 33.1629 25.0141 32.7254 24.8391C32.4082 24.7078 32.4082 24.6969 32.3535 23.6141C32.3098 22.6406 32.2551 22.4438 31.9051 21.7219C31.1723 20.2563 29.8488 19.3703 28.241 19.2938C27.7816 19.2719 27.2129 19.3047 26.9723 19.3594ZM28.8098 21.1313C29.4113 21.3063 30.3191 22.2141 30.4941 22.8156C30.5707 23.0672 30.6254 23.5484 30.6254 23.8875V24.5H28.0004H25.3754V23.8875C25.3754 22.9359 25.5723 22.4328 26.1957 21.8203C26.9613 21.0437 27.7816 20.8359 28.8098 21.1313ZM32.102 26.5234L32.3754 26.7859V30.625V34.4641L32.102 34.7266L31.8395 35H28.0004H24.1613L23.8988 34.7266L23.6254 34.4641V30.625V26.7859L23.8988 26.5234L24.1613 26.25H28.0004H31.8395L32.102 26.5234Z" fill="url(#paint1_linear_256_1372)"/>
<path d="M27.1167 27.2781C25.7823 27.7484 25.1042 29.1375 25.4979 30.5703C25.6292 31.0406 26.6573 32.1562 26.9635 32.1562C27.0948 32.1562 27.1276 32.3313 27.1276 33.1406V34.125H28.0026H28.8776V33.1516V32.1781L29.2057 32.0469C29.6651 31.8609 30.3432 31.0625 30.4964 30.5375C31.1089 28.4813 29.1182 26.5563 27.1167 27.2781ZM28.6042 29.1484C29.151 29.6844 28.7682 30.625 28.0026 30.625C27.7948 30.625 27.5651 30.5266 27.401 30.3516C27.226 30.1875 27.1276 29.9578 27.1276 29.75C27.1276 29.5422 27.226 29.3125 27.401 29.1484C27.5651 28.9734 27.7948 28.875 28.0026 28.875C28.2104 28.875 28.4401 28.9734 28.6042 29.1484Z" fill="url(#paint2_linear_256_1372)"/>
<path d="M23.625 10.5V11.375H24.5H25.375V10.5V9.625H24.5H23.625V10.5Z" fill="url(#paint3_linear_256_1372)"/>
<path d="M30.625 10.5V11.375H31.5H32.375V10.5V9.625H31.5H30.625V10.5Z" fill="url(#paint4_linear_256_1372)"/>
<path d="M14 15.75V16.625H14.875H15.75V15.75V14.875H14.875H14V15.75Z" fill="url(#paint5_linear_256_1372)"/>
<path d="M40.25 15.75V16.625H41.125H42V15.75V14.875H41.125H40.25V15.75Z" fill="url(#paint6_linear_256_1372)"/>
<path d="M44.625 24.5V25.375H45.5H46.375V24.5V23.625H45.5H44.625V24.5Z" fill="url(#paint7_linear_256_1372)"/>
<path d="M9.625 28V28.875H10.5H11.375V28V27.125H10.5H9.625V28Z" fill="url(#paint8_linear_256_1372)"/>
<path d="M46.375 31.5V32.375H47.25H48.125V31.5V30.625H47.25H46.375V31.5Z" fill="url(#paint9_linear_256_1372)"/>
<path d="M14 40.25V41.125H14.875H15.75V40.25V39.375H14.875H14V40.25Z" fill="url(#paint10_linear_256_1372)"/>
<path d="M40.25 40.25V41.125H41.125H42V40.25V39.375H41.125H40.25V40.25Z" fill="url(#paint11_linear_256_1372)"/>
<path d="M30.625 45.5V46.375H31.5H32.375V45.5V44.625H31.5H30.625V45.5Z" fill="url(#paint12_linear_256_1372)"/>
<path d="M23.625 48.125V49H24.5H25.375V48.125V47.25H24.5H23.625V48.125Z" fill="url(#paint13_linear_256_1372)"/>
<defs>
<linearGradient id="paint0_linear_256_1372" x1="49.283" y1="57.1577" x2="-3.2867" y2="-1.04157" gradientUnits="userSpaceOnUse">
<stop stop-color="#0060AA"/>
<stop offset="1" stop-color="#0E94FB"/>
</linearGradient>
<linearGradient id="paint1_linear_256_1372" x1="32.9733" y1="37.694" x2="15.9551" y2="24.4478" gradientUnits="userSpaceOnUse">
<stop stop-color="#0060AA"/>
<stop offset="1" stop-color="#0E94FB"/>
</linearGradient>
<linearGradient id="paint2_linear_256_1372" x1="30.1151" y1="34.5035" x2="23.2024" y2="28.79" gradientUnits="userSpaceOnUse">
<stop stop-color="#0060AA"/>
<stop offset="1" stop-color="#0E94FB"/>
</linearGradient>
<linearGradient id="paint3_linear_256_1372" x1="25.2095" y1="11.4696" x2="23.4595" y2="9.53041" gradientUnits="userSpaceOnUse">
<stop stop-color="#0060AA"/>
<stop offset="1" stop-color="#0E94FB"/>
</linearGradient>
<linearGradient id="paint4_linear_256_1372" x1="32.2095" y1="11.4696" x2="30.4595" y2="9.53041" gradientUnits="userSpaceOnUse">
<stop stop-color="#0060AA"/>
<stop offset="1" stop-color="#0E94FB"/>
</linearGradient>
<linearGradient id="paint5_linear_256_1372" x1="15.5845" y1="16.7196" x2="13.8345" y2="14.7804" gradientUnits="userSpaceOnUse">
<stop stop-color="#0060AA"/>
<stop offset="1" stop-color="#0E94FB"/>
</linearGradient>
<linearGradient id="paint6_linear_256_1372" x1="41.8345" y1="16.7196" x2="40.0845" y2="14.7804" gradientUnits="userSpaceOnUse">
<stop stop-color="#0060AA"/>
<stop offset="1" stop-color="#0E94FB"/>
</linearGradient>
<linearGradient id="paint7_linear_256_1372" x1="46.2095" y1="25.4696" x2="44.4595" y2="23.5304" gradientUnits="userSpaceOnUse">
<stop stop-color="#0060AA"/>
<stop offset="1" stop-color="#0E94FB"/>
</linearGradient>
<linearGradient id="paint8_linear_256_1372" x1="11.2095" y1="28.9696" x2="9.45946" y2="27.0304" gradientUnits="userSpaceOnUse">
<stop stop-color="#0060AA"/>
<stop offset="1" stop-color="#0E94FB"/>
</linearGradient>
<linearGradient id="paint9_linear_256_1372" x1="47.9595" y1="32.4696" x2="46.2095" y2="30.5304" gradientUnits="userSpaceOnUse">
<stop stop-color="#0060AA"/>
<stop offset="1" stop-color="#0E94FB"/>
</linearGradient>
<linearGradient id="paint10_linear_256_1372" x1="15.5845" y1="41.2196" x2="13.8345" y2="39.2804" gradientUnits="userSpaceOnUse">
<stop stop-color="#0060AA"/>
<stop offset="1" stop-color="#0E94FB"/>
</linearGradient>
<linearGradient id="paint11_linear_256_1372" x1="41.8345" y1="41.2196" x2="40.0845" y2="39.2804" gradientUnits="userSpaceOnUse">
<stop stop-color="#0060AA"/>
<stop offset="1" stop-color="#0E94FB"/>
</linearGradient>
<linearGradient id="paint12_linear_256_1372" x1="32.2095" y1="46.4696" x2="30.4595" y2="44.5304" gradientUnits="userSpaceOnUse">
<stop stop-color="#0060AA"/>
<stop offset="1" stop-color="#0E94FB"/>
</linearGradient>
<linearGradient id="paint13_linear_256_1372" x1="25.2095" y1="49.0946" x2="23.4595" y2="47.1554" gradientUnits="userSpaceOnUse">
<stop stop-color="#0060AA"/>
<stop offset="1" stop-color="#0E94FB"/>
</linearGradient>
</defs>
</svg>
