<svg width="56" height="56" viewBox="0 0 56 56" fill="none" xmlns="http://www.w3.org/2000/svg">
<g clip-path="url(#clip0_256_1344)">
<path d="M47.7422 1.00655C47.4469 1.06124 46.8016 1.30186 46.3094 1.53155C44.5266 2.38467 43.2469 4.14561 42.9625 6.11436L42.8312 7.0003H21.8531H0.875V24.5003V42.0003L14.0328 42.0222L27.1797 42.055L27.2563 42.7659C27.4531 44.5925 28.1531 46.6706 29.0828 48.2237C31.7953 52.73 36.6297 55.344 41.7812 55.0815C45.3906 54.9065 48.4094 53.5612 50.9797 50.98C53.5609 48.4097 54.9062 45.3909 55.0812 41.7815C55.2891 37.7456 53.725 33.8628 50.7609 31.03L49.875 30.1878V21.6128V13.0487L50.4766 12.9175C51.8875 12.6003 53.4953 11.43 54.2172 10.205C55.6719 7.72217 55.3109 4.70342 53.3203 2.70186C51.8766 1.23624 49.8203 0.612797 47.7422 1.00655ZM50.7938 3.04092C51.7891 3.5003 52.4234 4.13467 52.9156 5.11905C53.2984 5.90655 53.3203 6.00499 53.3203 7.0003C53.3203 7.99561 53.2984 8.09405 52.9156 8.88155C52.4234 9.87686 51.7891 10.4894 50.7719 10.9706C50.1047 11.2878 49.9406 11.3206 49 11.3206C48.0594 11.3206 47.8953 11.2878 47.25 10.9816C46.2109 10.4784 45.5766 9.87686 45.0953 8.88155C44.7016 8.09405 44.6797 7.99561 44.6797 7.01123C44.6797 6.05967 44.7125 5.89561 45.0297 5.22842C45.4672 4.29874 46.0906 3.62061 46.9109 3.19405C47.7641 2.73467 48.2453 2.6253 49.2406 2.66905C49.9078 2.70186 50.2469 2.78936 50.7938 3.04092ZM43.2578 9.06749C43.2906 9.24249 43.4984 9.66905 43.7062 10.019L44.0891 10.6534L41.4312 13.3112C39.2875 15.4659 38.7297 15.9691 38.5547 15.9144C38.0516 15.7612 37.2969 15.7284 36.9141 15.8597L36.5094 15.9909L35.6234 15.1159C34.7594 14.2519 34.7484 14.2409 34.8797 13.8909C35.4156 12.3378 34.0594 10.5003 32.375 10.5003C31.6859 10.5003 31.1281 10.7519 30.5703 11.3206C29.8047 12.0753 29.5641 12.994 29.8703 13.8909L30.0016 14.2409L27.825 16.4175C26.075 18.1675 25.6047 18.5941 25.4297 18.5394C24.3359 18.2112 23.4609 18.4191 22.6953 19.1847C21.5906 20.3003 21.5906 21.7003 22.6953 22.805C23.8 23.9097 25.2 23.9097 26.3156 22.805C27.0812 22.0394 27.2891 21.1644 26.9609 20.0706C26.9062 19.8956 27.3328 19.4253 29.0828 17.6753L31.2594 15.4987L31.6094 15.63C32.0688 15.7831 32.6812 15.7831 33.1406 15.63C33.4906 15.4987 33.5016 15.5097 34.3656 16.3847C35.2406 17.2487 35.2516 17.2597 35.1203 17.6097C34.5844 19.1628 35.9406 21.0003 37.625 21.0003C38.3141 21.0003 38.8719 20.7487 39.4406 20.18C40.2062 19.4144 40.4141 18.5394 40.0859 17.4456C40.0312 17.2706 40.5453 16.7128 42.6891 14.569L45.3469 11.9112L45.9813 12.2941C46.3312 12.5019 46.9547 12.7644 47.3703 12.8737L48.125 13.0597V21.0331C48.125 25.4191 48.0922 28.9847 48.0484 28.9628C46.1672 28.0003 44.8328 27.5519 43.0938 27.2894C38.9484 26.655 34.6719 28.0222 31.5547 30.9753L30.625 31.8503V29.9253V28.0003H28H25.375V33.2503V38.5003H26.3594H27.3547L27.2781 39.2331C27.2453 39.6487 27.2016 40.0425 27.1687 40.1081C27.1359 40.2175 24.5875 40.2503 14.875 40.2503H2.625V24.5003V8.7503H22.9031H43.1812L43.2578 9.06749ZM32.9766 12.5237C33.1516 12.6878 33.25 12.9175 33.25 13.1253C33.25 13.3331 33.1516 13.5628 32.9766 13.7269C32.8125 13.9019 32.5828 14.0003 32.375 14.0003C32.1672 14.0003 31.9375 13.9019 31.7734 13.7269C31.5984 13.5628 31.5 13.3331 31.5 13.1253C31.5 12.9175 31.5984 12.6878 31.7734 12.5237C31.9375 12.3487 32.1672 12.2503 32.375 12.2503C32.5828 12.2503 32.8125 12.3487 32.9766 12.5237ZM38.2266 17.7737C38.4016 17.9378 38.5 18.1675 38.5 18.3753C38.5 18.5831 38.4016 18.8128 38.2266 18.9769C38.0625 19.1519 37.8328 19.2503 37.625 19.2503C37.4172 19.2503 37.1875 19.1519 37.0234 18.9769C36.8484 18.8128 36.75 18.5831 36.75 18.3753C36.75 18.1675 36.8484 17.9378 37.0234 17.7737C37.1875 17.5987 37.4172 17.5003 37.625 17.5003C37.8328 17.5003 38.0625 17.5987 38.2266 17.7737ZM25.1016 20.3987C25.6484 20.9347 25.2656 21.8753 24.5 21.8753C24.0516 21.8753 23.625 21.4487 23.625 21.0003C23.625 20.5519 24.0516 20.1253 24.5 20.1253C24.7078 20.1253 24.9375 20.2237 25.1016 20.3987ZM40.2062 32.3316C40.1844 32.3972 39.9109 32.4847 39.5938 32.5284C38.7188 32.6487 37.2641 33.2175 36.3781 33.7972C33.0094 35.9956 31.5328 40.2722 32.8781 43.969C33.0203 44.3628 33.0969 44.7128 33.0531 44.7565C33.0094 44.7894 32.3422 45.194 31.5547 45.6425L30.1328 46.4628L29.8813 45.9159C28.4922 42.8534 28.5688 39.0034 30.0781 35.8862C31.8609 32.2112 35.3281 29.6191 39.2437 29.0503L40.1953 28.9191L40.2281 30.5597C40.2391 31.4675 40.2391 32.255 40.2062 32.3316ZM44.4609 29.3784C50.2469 30.9862 54.0859 36.794 53.2547 42.7222C53.1234 43.7065 52.7297 45.1284 52.3687 45.9159L52.1172 46.4628L50.6734 45.6315C49.8859 45.1612 49.2078 44.7565 49.175 44.7237C49.1422 44.6909 49.2188 44.3956 49.3391 44.0675C50.4219 41.2456 49.8094 37.8659 47.7969 35.4925C46.4734 33.9394 44.7234 32.9222 42.7656 32.5503L42.0547 32.4191L42.0219 30.6691L42 28.9081L42.7328 29.0065C43.1484 29.0612 43.925 29.2253 44.4609 29.3784ZM28.875 32.0362V34.3112L28.4484 35.23C28.2078 35.7331 27.9781 36.28 27.9453 36.444C27.8797 36.7065 27.8141 36.7503 27.4969 36.7503H27.125V33.2503V29.7503H28H28.875V32.0362ZM42.6016 34.2894C44.9641 34.7815 47.075 36.7284 47.8297 39.1019C48.0266 39.7253 48.0703 40.119 48.0703 41.18C48.0594 42.3175 48.0156 42.6019 47.775 43.2909C47.3703 44.4284 46.8672 45.2159 46.0469 46.0472C45.2156 46.8784 44.2203 47.4909 43.1484 47.83C42.525 48.0269 42.1312 48.0706 41.0703 48.0706C39.9328 48.0597 39.6484 48.0159 38.9594 47.7753C37.8109 47.3597 37.0344 46.8675 36.1484 45.9925C34.0375 43.8925 33.5344 40.6987 34.8906 37.9972C36.3344 35.1425 39.4625 33.6331 42.6016 34.2894ZM34.7922 47.0862C36.8922 49.2956 39.8125 50.269 42.6781 49.7222C44.5703 49.3612 46.1344 48.4862 47.5016 47.0425L48.2453 46.255L49.7109 47.0972C50.5203 47.5565 51.1875 47.9612 51.1875 48.005C51.1875 48.344 49.6234 50.0284 48.5734 50.805C47.0312 51.9753 45.2812 52.7737 43.3672 53.1784C42.525 53.3534 39.725 53.3534 38.8828 53.1784C36.3563 52.6425 34.1359 51.4394 32.3969 49.6784C31.5656 48.8472 30.9859 48.0597 31.0953 47.9394C31.1609 47.8847 33.9281 46.2769 33.9937 46.2659C34.0047 46.2659 34.3656 46.6378 34.7922 47.0862Z" fill="url(#paint0_linear_256_1344)"/>
<path d="M4.375 11.375V12.25H5.25H6.125V11.375V10.5H5.25H4.375V11.375Z" fill="url(#paint1_linear_256_1344)"/>
<path d="M7.875 11.375V12.25H14H20.125V11.375V10.5H14H7.875V11.375Z" fill="url(#paint2_linear_256_1344)"/>
<path d="M4.375 14.875V15.75H5.25H6.125V14.875V14H5.25H4.375V14.875Z" fill="url(#paint3_linear_256_1344)"/>
<path d="M7.875 14.875V15.75H14H20.125V14.875V14H14H7.875V14.875Z" fill="url(#paint4_linear_256_1344)"/>
<path d="M4.375 18.375V19.25H5.25H6.125V18.375V17.5H5.25H4.375V18.375Z" fill="url(#paint5_linear_256_1344)"/>
<path d="M7.875 18.375V19.25H14H20.125V18.375V17.5H14H7.875V18.375Z" fill="url(#paint6_linear_256_1344)"/>
<path d="M4.375 21.875V22.75H5.25H6.125V21.875V21H5.25H4.375V21.875Z" fill="url(#paint7_linear_256_1344)"/>
<path d="M7.875 21.875V22.75H14H20.125V21.875V21H14H7.875V21.875Z" fill="url(#paint8_linear_256_1344)"/>
<path d="M18.375 31.5V38.5H21H23.625V31.5V24.5H21H18.375V31.5ZM21.875 31.5V36.75H21H20.125V31.5V26.25H21H21.875V31.5Z" fill="url(#paint9_linear_256_1344)"/>
<path d="M4.375 34.125V38.5H7H9.625V34.125V29.75H7H4.375V34.125ZM7.875 34.125V36.75H7H6.125V34.125V31.5H7H7.875V34.125Z" fill="url(#paint10_linear_256_1344)"/>
<path d="M11.375 35V38.5H14H16.625V35V31.5H14H11.375V35ZM14.875 35V36.75H14H13.125V35V33.25H14H14.875V35Z" fill="url(#paint11_linear_256_1344)"/>
<path d="M39.8237 36.0509C37.0565 36.7947 35.3393 39.6712 36.0393 42.3837C36.7721 45.1837 39.6377 46.9228 42.383 46.2118C45.183 45.479 46.9221 42.6134 46.2112 39.89C45.4783 37.0572 42.569 35.3072 39.8237 36.0509ZM42.7768 38.0743C43.5096 38.4681 43.8487 38.8181 44.2752 39.6384C44.5158 40.1087 44.5596 40.3384 44.5596 41.1259C44.5705 41.979 44.5377 42.1103 44.1987 42.7447C43.783 43.5103 43.433 43.8384 42.6127 44.2759C42.1424 44.5165 41.9127 44.5603 41.1252 44.5603C40.3377 44.5603 40.108 44.5165 39.6377 44.2759C38.8174 43.8384 38.4674 43.5103 38.0518 42.7447C37.7127 42.1103 37.6799 41.979 37.6908 41.1259C37.6908 40.0322 37.9533 39.3759 38.6643 38.665C39.758 37.5712 41.3877 37.3415 42.7768 38.0743Z" fill="url(#paint12_linear_256_1344)"/>
</g>
<defs>
<linearGradient id="paint0_linear_256_1344" x1="49.9739" y1="58.0298" x2="-4.23271" y2="-2.05913" gradientUnits="userSpaceOnUse">
<stop stop-color="#0060AA"/>
<stop offset="1" stop-color="#0E94FB"/>
</linearGradient>
<linearGradient id="paint1_linear_256_1344" x1="5.95946" y1="12.3446" x2="4.20946" y2="10.4054" gradientUnits="userSpaceOnUse">
<stop stop-color="#0060AA"/>
<stop offset="1" stop-color="#0E94FB"/>
</linearGradient>
<linearGradient id="paint2_linear_256_1344" x1="18.9662" y1="12.3446" x2="18.52" y2="8.88366" gradientUnits="userSpaceOnUse">
<stop stop-color="#0060AA"/>
<stop offset="1" stop-color="#0E94FB"/>
</linearGradient>
<linearGradient id="paint3_linear_256_1344" x1="5.95946" y1="15.8446" x2="4.20946" y2="13.9054" gradientUnits="userSpaceOnUse">
<stop stop-color="#0060AA"/>
<stop offset="1" stop-color="#0E94FB"/>
</linearGradient>
<linearGradient id="paint4_linear_256_1344" x1="18.9662" y1="15.8446" x2="18.52" y2="12.3837" gradientUnits="userSpaceOnUse">
<stop stop-color="#0060AA"/>
<stop offset="1" stop-color="#0E94FB"/>
</linearGradient>
<linearGradient id="paint5_linear_256_1344" x1="5.95946" y1="19.3446" x2="4.20946" y2="17.4054" gradientUnits="userSpaceOnUse">
<stop stop-color="#0060AA"/>
<stop offset="1" stop-color="#0E94FB"/>
</linearGradient>
<linearGradient id="paint6_linear_256_1344" x1="18.9662" y1="19.3446" x2="18.52" y2="15.8837" gradientUnits="userSpaceOnUse">
<stop stop-color="#0060AA"/>
<stop offset="1" stop-color="#0E94FB"/>
</linearGradient>
<linearGradient id="paint7_linear_256_1344" x1="5.95946" y1="22.8446" x2="4.20946" y2="20.9054" gradientUnits="userSpaceOnUse">
<stop stop-color="#0060AA"/>
<stop offset="1" stop-color="#0E94FB"/>
</linearGradient>
<linearGradient id="paint8_linear_256_1344" x1="18.9662" y1="22.8446" x2="18.52" y2="19.3837" gradientUnits="userSpaceOnUse">
<stop stop-color="#0060AA"/>
<stop offset="1" stop-color="#0E94FB"/>
</linearGradient>
<linearGradient id="paint9_linear_256_1344" x1="23.1284" y1="39.2568" x2="13.1542" y2="35.1121" gradientUnits="userSpaceOnUse">
<stop stop-color="#0060AA"/>
<stop offset="1" stop-color="#0E94FB"/>
</linearGradient>
<linearGradient id="paint10_linear_256_1344" x1="9.12838" y1="38.973" x2="1.01733" y2="33.5802" gradientUnits="userSpaceOnUse">
<stop stop-color="#0060AA"/>
<stop offset="1" stop-color="#0E94FB"/>
</linearGradient>
<linearGradient id="paint11_linear_256_1344" x1="16.1284" y1="38.8784" x2="9.21022" y2="33.1288" gradientUnits="userSpaceOnUse">
<stop stop-color="#0060AA"/>
<stop offset="1" stop-color="#0E94FB"/>
</linearGradient>
<linearGradient id="paint12_linear_256_1344" x1="45.3783" y1="46.9382" x2="34.8864" y2="35.3164" gradientUnits="userSpaceOnUse">
<stop stop-color="#0060AA"/>
<stop offset="1" stop-color="#0E94FB"/>
</linearGradient>
<clipPath id="clip0_256_1344">
<rect width="56" height="56" fill="white"/>
</clipPath>
</defs>
</svg>
