<svg width="120" height="120" viewBox="0 0 120 120" fill="none" xmlns="http://www.w3.org/2000/svg">
<circle cx="60" cy="60" r="60" fill="url(#paint0_linear_434_599)"/>
<g clip-path="url(#clip0_434_599)">
<path d="M34.9108 36.8344C34.9874 42.3797 34.9546 42.2047 35.8624 42.2594L36.3546 42.2922L36.3983 44.2281C36.4311 46 36.453 46.1969 36.6608 46.4813L36.8905 46.8094L36.4749 47.6297C36.1577 48.2422 35.8077 49.3578 35.1186 51.95C34.6046 53.8641 34.1889 55.5156 34.1889 55.6141C34.1889 55.7234 34.2874 56.0953 34.4077 56.4453C34.528 56.7953 34.6264 57.1016 34.6264 57.1234C34.6264 57.1453 34.4077 57.2656 34.1343 57.3859C32.9858 57.8891 32.3952 58.7422 32.3952 59.8906C32.3843 60.5906 32.4499 60.7328 37.2405 71.4297C39.9093 77.3906 42.1296 82.3016 42.1733 82.3563C42.2171 82.4 44.0764 81.6344 46.2968 80.6391C48.5061 79.6438 50.5515 78.725 50.8249 78.6156C51.4046 78.3641 51.7983 77.9266 51.7983 77.5109C51.7983 77.3031 51.6233 77.0734 51.1202 76.625C49.3483 75.0609 49.0093 74.5141 49.0202 73.2344C49.0202 71.3969 50.3218 69.9969 52.1374 69.8656C54.6202 69.6906 56.4577 72.0641 55.6374 74.3828C55.5171 74.7328 55.4077 75.1266 55.4077 75.2359C55.4077 75.4984 55.9874 76.0781 56.2608 76.0781C56.6327 76.0781 64.3874 72.5453 64.7483 72.2063C65.1093 71.8672 65.9733 71.4516 66.1264 71.5391C66.1702 71.5719 66.2468 71.8125 66.2905 72.0859C66.3233 72.3594 66.5639 73.0047 66.8155 73.5078L67.2749 74.4156L66.9796 74.7547L66.6733 75.0938V77.0625V79.0312H66.2577C66.028 79.0312 65.7327 79.1078 65.6015 79.2063C65.3608 79.3703 65.3608 79.4031 65.3608 82.0719C65.3608 83.5594 65.3936 85.4734 65.4374 86.3266L65.503 87.8906H66.1155H66.728L66.6952 84.1172L66.6515 80.3438H70.4686C72.5577 80.3438 76.4515 80.3109 79.1202 80.2672L83.9546 80.2016V81.6672C83.9546 82.4766 83.9874 84.2047 84.0311 85.5172L84.0968 87.8906H84.7311H85.3655L85.2999 83.7016C85.2343 78.9 85.2561 78.9984 84.3702 78.9438L83.8671 78.9109L83.8233 76.9531C83.7905 75.1813 83.7686 74.9734 83.5608 74.6891L83.3311 74.3828L83.7577 73.5625C84.2718 72.5563 86.0765 65.95 85.989 65.4141C85.9561 65.2281 85.814 64.7141 85.6608 64.2437L85.3983 63.4125L86.0874 63.0734C87.2358 62.5047 87.8593 61.3125 87.5968 60.1859C87.4546 59.5516 78.5843 38.3438 78.464 38.3438C78.4093 38.3438 76.539 39.1094 74.2968 40.05C72.0546 40.9906 70.1624 41.7781 70.0968 41.8109C69.9874 41.8547 69.9546 41.625 69.9546 40.8922C69.9546 39.2844 69.6155 38.3438 68.7077 37.3703C67.778 36.3859 66.6952 35.9266 65.2952 35.9266C63.8733 35.9266 62.8561 36.3641 61.8718 37.4141C60.5265 38.8359 60.2093 40.8813 61.0515 42.675C61.3686 43.3531 62.0468 44.1406 62.5827 44.4797C62.9108 44.6766 62.9436 44.7422 62.8124 44.8188C62.5389 44.9719 53.9968 48.5156 53.9093 48.5156C53.8546 48.5156 53.6249 48.1219 53.3843 47.6516L52.9358 46.7875L53.2421 46.4484L53.5483 46.1094V44.1516V42.2047L54.0405 42.15C54.8936 42.0516 54.8608 42.1938 54.8608 38.7266C54.8608 37.0312 54.828 34.8219 54.7843 33.8266L54.7186 32H54.1061H53.4936L53.5265 36.4297L53.5702 40.8594H49.0421C46.5483 40.8594 42.6546 40.8922 40.3905 40.9359L36.2671 41.0016V39.4703C36.2671 38.6281 36.2343 36.6047 36.1905 34.975L36.1249 32H35.4905H34.8561L34.9108 36.8344ZM66.739 37.5234C67.3843 37.8078 67.9968 38.3766 68.3358 39.0328C68.5655 39.4484 68.5874 39.6453 68.5983 41.0781C68.6093 42.8063 68.664 43.0469 69.178 43.2656C69.5936 43.4297 69.4515 43.4844 74.1108 41.5266C76.1233 40.6844 77.8077 40.0281 77.8405 40.0719C77.9936 40.2469 86.2733 60.1969 86.328 60.5141C86.4374 61.1812 85.9671 61.8484 85.2452 62.0234C84.9827 62.0891 84.9499 62.0562 84.7968 61.5641C84.6983 61.2797 84.2718 59.9344 83.8343 58.5781C83.0249 56.0406 82.8499 55.6906 82.1827 55.3406C81.8108 55.1547 80.9686 55.1547 80.4218 55.3406C79.4046 55.7125 78.7921 56.5219 78.5186 57.8891C78.3436 58.7422 78.3436 58.7422 78.7483 61.3125C78.978 62.7234 79.1858 63.9922 79.2186 64.1234C79.2624 64.3094 79.1749 64.4188 78.8468 64.6375C78.6171 64.7906 75.5327 66.125 71.978 67.6016C68.4343 69.0891 65.4921 70.325 65.4374 70.3578C65.3936 70.3797 65.3171 70.2922 65.2624 70.15C65.2077 70.0078 64.5405 68.4766 63.7858 66.7594C63.0311 65.0312 62.4077 63.5766 62.4077 63.5219C62.4077 63.4672 62.5499 63.4453 62.7249 63.4781C63.3265 63.5656 64.8468 63.2922 65.4702 62.9859C67.3843 62.0562 68.5108 59.5297 67.9421 57.4297C67.5046 55.7891 66.4218 54.6406 64.7921 54.0828C64.2343 53.8969 63.928 53.8641 63.1733 53.9078C61.6093 53.9844 60.3733 54.6406 59.553 55.8109L59.1593 56.3797L57.814 53.35C57.0811 51.6875 56.3374 50.0469 56.1733 49.7188L55.8671 49.1172L60.2421 47.3125C63.0093 46.175 64.6718 45.4313 64.7702 45.3C65.153 44.7531 64.8139 44.0641 64.0374 43.8125C63.3921 43.5938 62.4952 42.7406 62.178 42.0406C61.7952 41.1766 61.8061 39.9188 62.2108 39.1531C62.6265 38.3656 62.9655 37.9938 63.5999 37.6547C64.628 37.0969 65.6889 37.0531 66.739 37.5234ZM52.2358 43.9109V45.65L49.5889 45.7266C48.1233 45.7594 44.8639 45.7812 42.3374 45.7594L37.7436 45.7266L37.7108 44.0094L37.678 42.2812L40.8827 42.2484C42.6436 42.2375 45.9249 42.2156 48.1671 42.1938L52.2358 42.1719V43.9109ZM51.7874 47.4766C52.1374 47.9688 52.553 48.8 52.5639 49.0187C52.5639 49.0844 50.2233 50.1891 47.3577 51.4688C43.0702 53.3937 42.1405 53.8531 42.0093 54.0828C41.6811 54.7172 40.6968 55.5047 39.5702 56.0188C39.5593 56.0297 39.7671 57.4078 40.0514 59.0813C40.5874 62.3625 40.6093 62.8875 40.2155 63.7625C39.8655 64.5719 38.8483 64.9984 38.4327 64.5063C38.3452 64.4078 37.6452 62.3516 36.8796 59.9453L35.4905 55.5703L36.4311 52.0703C37.2514 49.0187 37.4374 48.4719 37.8311 47.8375L38.2796 47.0938L43.4311 47.0609C46.253 47.05 49.2171 47.0281 50.0046 47.0063L51.4374 46.9844L51.7874 47.4766ZM54.7733 49.9047C54.8608 50.0141 55.6811 51.8188 56.5999 53.9297C57.5186 56.0297 58.339 57.8672 58.4265 58.0094C58.6561 58.3594 59.0389 58.4906 59.4655 58.3375C59.739 58.25 59.8702 58.0859 60.078 57.6047C60.4936 56.675 60.9968 56.1281 61.828 55.7125C62.4405 55.4172 62.6702 55.3625 63.3265 55.3625C65.153 55.3625 66.553 56.675 66.6515 58.4906C66.7171 59.5625 66.4655 60.2297 65.6999 60.9844C64.9015 61.7828 64.4968 61.9031 62.714 61.9141C61.4015 61.9141 61.314 61.925 61.0515 62.1766C60.8546 62.3625 60.7671 62.5594 60.7671 62.8C60.7671 63.0188 61.3796 64.5281 62.4077 66.8141C63.3155 68.8266 64.0483 70.5875 64.0483 70.7406C64.0483 70.8828 63.9827 71.0906 63.9171 71.1891C63.7968 71.3531 57.3546 74.3281 57.1249 74.3281C57.0811 74.3281 57.0702 74.0437 57.114 73.6938C57.2999 71.9984 56.3483 70.1172 54.8499 69.2203C51.9624 67.4922 48.3311 69.2094 47.7296 72.5781C47.4671 74.0656 47.9155 75.2578 49.228 76.5922L50.103 77.5L48.8999 78.0359C48.2436 78.3422 46.603 79.075 45.2577 79.6766L42.8186 80.7703L42.6218 80.3109C42.5124 80.0594 40.4452 75.4219 38.0171 70.0188C34.0358 61.1266 33.6202 60.1422 33.6749 59.7484C33.7077 59.4859 33.8499 59.2016 34.0249 59.0156C34.3311 58.6984 34.9108 58.3922 35.0202 58.5016C35.053 58.5344 35.5452 60.0219 36.1249 61.8266C37.2186 65.2719 37.3608 65.5453 38.0936 65.8625C38.8483 66.1797 40.1936 65.8844 40.7843 65.2719C41.1889 64.8563 41.5936 63.8938 41.7249 63.0625C41.8452 62.2969 41.8233 62.0891 41.2436 58.5344C40.9921 57.0141 40.9811 56.7734 41.1124 56.6969C41.5499 56.4563 42.4249 55.6906 42.7421 55.2641C43.0811 54.8156 43.3218 54.6953 48.7358 52.2672C51.8311 50.8672 54.4233 49.7297 54.489 49.7297C54.5546 49.7188 54.6858 49.8063 54.7733 49.9047ZM81.8108 56.5875C81.8436 56.6422 82.5108 58.6875 83.2983 61.1266L84.7311 65.5781L83.7796 69.1C82.9483 72.2063 82.7843 72.7094 82.3686 73.3875L81.8983 74.1641L75.4124 74.1969L68.9265 74.2188L68.6749 73.9781C68.1171 73.4531 67.4389 71.9 67.4389 71.1672C67.4389 70.8938 67.6358 70.7953 71.0811 69.3734C73.0718 68.5422 75.1718 67.6672 75.7186 67.4375L76.7358 67.0109L76.4624 67.5469C76.3093 67.8422 76.189 68.1047 76.189 68.1266C76.189 68.1812 77.228 68.6406 77.3265 68.6406C77.3593 68.6406 77.589 68.2359 77.8515 67.7437C78.3983 66.6828 79.1858 65.8625 80.0718 65.4359C80.6296 65.1516 80.6843 65.0969 80.6296 64.8344C80.2686 63.0734 79.678 58.9609 79.7218 58.4578C79.7874 57.7578 80.1046 57.0578 80.5202 56.7297C80.8155 56.5 81.6905 56.4016 81.8108 56.5875ZM82.478 77.2266V78.8672L75.3686 78.9547C71.464 78.9984 68.1936 79.0094 68.128 78.9766C68.0186 78.9438 67.9858 78.4844 67.9858 77.2266V75.5312L75.2374 75.5531L82.478 75.5859V77.2266Z" fill="white"/>
<path d="M78.4406 32.7766C78.4078 33.1484 78.375 33.8922 78.375 34.4172V35.3906H79.0203H79.6766L79.7094 33.8047C79.7422 32.0437 79.775 32.1094 78.9109 32.1094H78.5172L78.4406 32.7766Z" fill="white"/>
<path d="M73.65 34.1437L73.125 34.4062L73.8359 35.8281C74.2297 36.6156 74.6016 37.25 74.6562 37.25C74.7547 37.25 75.6297 36.8453 75.7281 36.7578C75.7828 36.7141 74.2844 33.8594 74.2188 33.8703C74.1859 33.8703 73.9344 33.9906 73.65 34.1437Z" fill="white"/>
<path d="M83.2531 35.2484C82.8594 36.0141 82.5312 36.6813 82.5312 36.725C82.5312 36.7688 82.7719 36.9328 83.0672 37.0859L83.6141 37.3594L84.325 35.9703C84.7188 35.2047 85.0469 34.5375 85.0469 34.4938C85.0469 34.45 84.8062 34.2859 84.5109 34.1328L83.9641 33.8594L83.2531 35.2484Z" fill="white"/>
<path d="M46.3062 83.0344C46.0109 83.1766 45.7812 83.3516 45.7812 83.4172C45.7812 83.5375 46.0437 84.0734 46.7328 85.3422L47.2141 86.25L47.7609 85.9766C48.0562 85.8234 48.2969 85.6703 48.2969 85.6484C48.2969 85.5719 46.8859 82.75 46.8422 82.75C46.8312 82.7609 46.5906 82.8813 46.3062 83.0344Z" fill="white"/>
<path d="M37.0859 84.2812L36.375 85.6922L36.8453 85.9766C37.1078 86.1297 37.3703 86.25 37.425 86.25C37.4797 86.25 37.8625 85.6047 38.2672 84.8281L39.0109 83.4172L38.4641 83.1328C38.1578 82.9797 37.8844 82.8594 37.8516 82.8594C37.8297 82.8594 37.4797 83.4938 37.0859 84.2812Z" fill="white"/>
<path d="M41.6906 85.7254C41.6578 86.2723 41.625 86.9832 41.625 87.3004V87.8801L42.2266 87.9457C42.5656 87.9895 42.85 88.0113 42.8719 87.9895C42.8938 87.9676 42.9375 87.2238 42.9703 86.327L43.025 84.7192H42.3906H41.7672L41.6906 85.7254Z" fill="white"/>
</g>
<defs>
<linearGradient id="paint0_linear_434_599" x1="108.649" y1="-6.48649" x2="-11.3514" y2="126.486" gradientUnits="userSpaceOnUse">
<stop stop-color="#0060AA"/>
<stop offset="1" stop-color="#0E94FB"/>
</linearGradient>
<clipPath id="clip0_434_599">
<rect width="56" height="56" fill="white" transform="translate(32 32)"/>
</clipPath>
</defs>
</svg>
