<svg width="56" height="50" viewBox="0 0 56 50" fill="none" xmlns="http://www.w3.org/2000/svg">
<ellipse cx="28.0719" cy="25" rx="27.193" ry="25" fill="#F5F5F7"/>
<path d="M28.1383 32.5588C24.9515 32.5588 21.7648 32.5588 18.578 32.5588C18.4223 32.5588 18.2646 32.5588 18.1083 32.544C17.3105 32.4755 16.9898 31.9814 17.33 31.3133C17.6252 30.7365 17.9473 30.1745 18.26 29.6039C19.7361 26.9172 21.2123 24.2309 22.6885 21.545C22.7341 21.4629 22.7818 21.3809 22.8348 21.3025C23.2065 20.7548 23.8104 20.6776 24.2861 21.1502C24.6216 21.4808 24.9055 21.8522 25.2047 22.2106C26.7256 24.0378 28.2466 25.8658 29.7675 27.6947C30.4318 28.4904 31.2685 28.5336 32.0489 27.818C32.436 27.4627 32.8145 27.0981 33.2063 26.7459C33.9129 26.1105 34.7147 26.1488 35.2918 26.8896C36.4499 28.3763 37.5792 29.8827 38.7138 31.3842C38.8025 31.502 38.8704 31.6319 38.9151 31.7692C39.0252 32.114 38.8695 32.3916 38.4891 32.4835C38.2505 32.536 38.0056 32.5603 37.7604 32.5557C34.5548 32.5606 31.3475 32.5617 28.1383 32.5588Z" fill="#6E6E73"/>
<path d="M35.2851 17.8369C35.2842 18.4104 35.0982 18.9707 34.7506 19.4469C34.403 19.923 33.9094 20.2936 33.3325 20.5115C32.7555 20.7294 32.1211 20.785 31.5098 20.6711C30.8985 20.5572 30.3377 20.2789 29.8985 19.8717C29.4594 19.4644 29.1617 18.9464 29.0432 18.3834C28.9246 17.8204 28.9906 17.2377 29.2327 16.7092C29.4748 16.1807 29.8822 15.7302 30.4031 15.4148C30.9241 15.0994 31.5351 14.9333 32.1589 14.9376C32.9895 14.9473 33.7827 15.2567 34.3674 15.799C34.9522 16.3414 35.2818 17.0733 35.2851 17.8369Z" fill="#6E6E73"/>
</svg>
