<svg width="24" height="24" viewBox="0 0 24 24" fill="none" xmlns="http://www.w3.org/2000/svg">
<path d="M18.72 3.99948H5.37C5.19793 3.99142 5.02595 4.01737 4.86392 4.07586C4.70189 4.13435 4.55299 4.22422 4.42573 4.34032C4.29848 4.45643 4.19537 4.5965 4.12232 4.7525C4.04927 4.90851 4.0077 5.07739 4 5.24948V18.6295C4.01008 18.9896 4.15766 19.3323 4.41243 19.587C4.6672 19.8418 5.00984 19.9894 5.37 19.9995H18.72C19.0701 19.9839 19.4002 19.8317 19.6395 19.5756C19.8788 19.3195 20.0082 18.9799 20 18.6295V5.24948C20.0029 5.08198 19.9715 4.91567 19.9078 4.76073C19.8441 4.6058 19.7494 4.46551 19.6295 4.34846C19.5097 4.23142 19.3672 4.1401 19.2108 4.08009C19.0544 4.02008 18.8874 3.99265 18.72 3.99948ZM9 17.3395H6.67V10.2095H9V17.3395ZM7.89 9.12948C7.72741 9.13515 7.5654 9.10713 7.41416 9.04719C7.26291 8.98725 7.12569 8.89668 7.01113 8.78117C6.89656 8.66566 6.80711 8.52771 6.74841 8.37598C6.6897 8.22425 6.66301 8.06202 6.67 7.89948C6.66281 7.73518 6.69004 7.5712 6.74995 7.41805C6.80986 7.26489 6.90112 7.12595 7.01787 7.01014C7.13463 6.89432 7.2743 6.80419 7.42793 6.74553C7.58157 6.68686 7.74577 6.66096 7.91 6.66948C8.07259 6.66382 8.2346 6.69183 8.38584 6.75177C8.53709 6.81171 8.67431 6.90228 8.78887 7.01779C8.90344 7.1333 8.99289 7.27125 9.05159 7.42298C9.1103 7.57471 9.13699 7.73694 9.13 7.89948C9.13719 8.06378 9.10996 8.22776 9.05005 8.38091C8.99014 8.53407 8.89888 8.67301 8.78213 8.78882C8.66537 8.90464 8.5257 8.99477 8.37207 9.05343C8.21843 9.1121 8.05423 9.138 7.89 9.12948ZM17.34 17.3395H15V13.4395C15 12.5095 14.67 11.8695 13.84 11.8695C13.5822 11.8717 13.3313 11.9536 13.1219 12.104C12.9124 12.2544 12.7546 12.4659 12.67 12.7095C12.605 12.8921 12.5778 13.086 12.59 13.2795V17.3395H10.29V10.2095H12.59V11.2095C12.7945 10.8338 13.0988 10.522 13.4694 10.3084C13.84 10.0949 14.2624 9.98799 14.69 9.99948C16.2 9.99948 17.34 10.9995 17.34 13.1295V17.3395Z" fill="#1D1D1F"/>
</svg>
