<svg width="56" height="56" viewBox="0 0 56 56" fill="none" xmlns="http://www.w3.org/2000/svg">
<rect width="56" height="56" fill="white"/>
<path d="M26.25 3.82891C26.0531 4.02579 26.0312 4.18985 26.0312 5.96173C26.0312 7.7336 26.0531 7.89766 26.25 8.09454C26.5234 8.36798 27.0375 8.37891 27.2672 8.11641C27.4312 7.94141 27.4531 7.62423 27.4531 5.9836C27.4531 4.18985 27.4312 4.02579 27.2344 3.82891C27.1141 3.7086 26.8953 3.61016 26.7422 3.61016C26.5891 3.61016 26.3703 3.7086 26.25 3.82891Z" fill="url(#paint0_linear_256_1301)"/>
<path d="M37.6569 6.91348C37.3725 7.23066 35.885 9.80098 35.8084 10.1182C35.7209 10.4572 36.1475 10.9385 36.5194 10.9385C36.935 10.9385 37.1428 10.676 38.1053 8.96973C38.9803 7.42754 39.024 7.2416 38.5865 6.85879C38.2803 6.60723 37.9303 6.6291 37.6569 6.91348Z" fill="url(#paint1_linear_256_1301)"/>
<path d="M18.9425 7.05571C13.3316 8.0729 9.14255 12.8307 8.78161 18.6057C8.72692 19.5792 8.73786 19.6776 8.95661 19.8963C9.17536 20.1151 9.29567 20.126 10.9254 20.126H12.6535L12.7082 21.0338C12.7738 22.1057 13.0254 22.6635 13.6707 23.2104C14.4472 23.8885 15.4316 24.0198 16.3504 23.5823C17.3894 23.0901 17.816 22.3792 17.9144 20.9792L17.9691 20.126H19.6972C22.0488 20.126 21.8738 20.3448 21.8738 17.3916C21.8738 14.526 21.9394 14.6573 20.3425 14.6573C19.0629 14.6573 18.5816 14.5042 18.33 14.012C18.1004 13.5854 18.1113 13.3666 18.3738 12.9401C18.6472 12.4916 19.1066 12.3604 20.4738 12.3604C21.9394 12.3604 21.8738 12.4807 21.8738 9.60415C21.8738 6.82603 21.9066 6.89165 20.5941 6.90259C20.1238 6.90259 19.38 6.97915 18.9425 7.05571ZM20.3425 9.68071V10.9385H19.555C17.8707 10.9385 16.7332 11.9776 16.7332 13.5088C16.7332 15.0401 17.8707 16.0791 19.555 16.0791H20.3425V17.3916V18.7042H18.5925C16.3285 18.7042 16.405 18.6495 16.405 20.4104C16.405 21.6573 16.405 21.6792 16.0879 21.9963C15.8363 22.2479 15.6722 22.3135 15.3113 22.3135C14.9504 22.3135 14.7863 22.2479 14.5347 21.9963C14.2175 21.6792 14.2175 21.6573 14.2175 20.4104C14.2175 18.6495 14.2941 18.7042 12.0191 18.7042H10.2472L10.3238 17.9495C10.455 16.451 11.2207 14.3948 12.1504 13.0495C13.1675 11.5838 15.016 10.0526 16.6785 9.2979C17.5972 8.88227 19.2379 8.43384 19.8832 8.4229H20.3425V9.68071Z" fill="url(#paint2_linear_256_1301)"/>
<path d="M26.2262 14.8431C26.0512 15.029 26.0294 15.3025 26.0294 16.8665V18.6822L25.0669 18.7259C24.2137 18.7587 24.0278 18.8025 23.5575 19.0869C22.5841 19.6994 22.1247 20.8587 22.4309 21.9525C22.5294 22.3244 22.7262 22.6306 23.12 23.0244C23.7653 23.6697 24.2466 23.8447 25.3075 23.8447H26.0403L26.0075 25.1244L25.9747 26.415L24.2137 26.4478C21.9716 26.4806 22.0591 26.415 21.9825 28.2415C21.9278 29.5103 21.9169 29.565 21.6216 29.8165C21.0309 30.3197 20.1778 30.09 19.8934 29.3462C19.8387 29.204 19.795 28.5697 19.795 27.9572C19.795 26.3712 19.9481 26.4587 17.0606 26.4915L14.7309 26.5244L14.5341 26.7978C14.3481 27.0494 14.3481 27.1806 14.4356 28.154C14.7528 31.4134 16.3606 34.4759 18.8106 36.4775C19.4887 37.0353 20.4512 38.1619 20.4512 38.4025C20.4512 38.4462 20.2106 38.5119 19.9044 38.5556C19.3028 38.6431 18.8872 38.9056 18.6466 39.3759C18.4059 39.8462 18.4059 43.3244 18.6575 43.729C18.9637 44.254 19.3466 44.4509 20.145 44.4947L20.8887 44.5384V46.2775C20.8887 48.5306 21.0637 49.0009 22.0372 49.4494C22.4309 49.6353 22.8247 49.6572 26.4012 49.6572H30.3169L30.9513 50.2369C32.57 51.7134 34.7575 52.49 36.9669 52.3587C38.3012 52.2822 39.0778 52.0744 40.3028 51.4619C45.8153 48.7494 46.6466 41.1697 41.845 37.3415C40.4231 36.204 38.8481 35.6025 36.9231 35.4603L35.895 35.3837L36.595 34.454C39.4169 30.7134 39.9091 25.879 37.8966 21.69C37.2731 20.3884 36.6934 19.5353 35.72 18.5072C33.5544 16.2212 30.6231 14.8322 27.6153 14.69C26.5216 14.6353 26.3903 14.6462 26.2262 14.8431ZM29.2887 16.4181C33.6637 17.4134 37.0762 21.2744 37.5794 25.7915L37.6559 26.4806L36.4637 26.4478L35.2716 26.415L35.2059 25.4853C35.1184 24.0634 34.5497 23.2322 33.3903 22.8494C32.3841 22.5212 31.0606 23.0353 30.47 23.9978C30.1856 24.4462 30.1419 24.654 30.0981 25.4962L30.0544 26.4806L28.7747 26.4478L27.5059 26.415L27.4731 24.5994C27.4403 22.2915 27.5169 22.39 25.6794 22.3134C24.4106 22.2587 24.3559 22.2478 24.1044 21.9525C23.6122 21.3837 23.8309 20.4869 24.52 20.2462C24.7059 20.1806 25.3512 20.1259 25.9528 20.1259C27.5059 20.1259 27.4512 20.2025 27.4512 17.9931C27.4512 17.0197 27.4841 16.1994 27.5169 16.1556C27.5934 16.079 28.1512 16.1556 29.2887 16.4181ZM33.3684 24.4462C33.6528 24.6322 33.795 25.2775 33.795 26.404C33.795 27.9244 33.7403 27.8915 35.9497 27.8915C36.8684 27.8915 37.6231 27.9353 37.6231 27.99C37.6231 28.3728 37.2184 30.0462 36.945 30.8009C36.6059 31.7634 35.7638 33.1962 35.0419 34.0712C34.5169 34.7056 32.6575 36.3353 31.7716 36.9369C31.4106 37.1884 30.8747 37.6369 30.5684 37.9431L30.0325 38.5009H28.7419H27.4512V37.09V35.679L28.4137 35.6353C29.2122 35.6025 29.4637 35.5369 29.8794 35.2962C31.6184 34.279 31.5528 31.7525 29.7591 30.8228C29.2669 30.5603 29.0481 30.5165 28.3153 30.5165H27.4512V29.204V27.8915H29.2887C31.6294 27.8915 31.5419 27.9681 31.5856 26.1415C31.6184 24.9275 31.6403 24.8181 31.9028 24.5665C32.2747 24.1947 32.8653 24.14 33.3684 24.4462ZM18.3731 28.7447C18.3731 29.4447 18.4278 29.6962 18.6575 30.1775C19.4778 31.829 21.6544 32.0587 22.8794 30.6259C23.3497 30.09 23.5137 29.554 23.5137 28.6134V27.8915H24.7716H26.0294V29.7181C26.0294 32.0259 25.9747 31.9384 27.5278 31.9384C29.2012 31.9384 29.6387 32.179 29.6387 33.1197C29.6387 33.4369 29.5622 33.6228 29.3653 33.8197C29.0481 34.1478 28.6106 34.2353 27.3528 34.2353C25.9856 34.2353 26.0294 34.1697 26.0294 36.554V38.5009H24.0606H22.0919L21.8184 37.8775C21.4247 36.9915 20.8231 36.2478 19.8278 35.4056C17.6731 33.59 16.3278 31.1619 15.9231 28.3509L15.8575 27.8915H17.1153H18.3731V28.7447ZM38.2247 37.1337C39.5044 37.4619 40.445 38.0087 41.4512 39.0369C42.5231 40.1197 42.9716 40.9072 43.3216 42.329C43.7262 43.9259 43.4747 45.8619 42.6872 47.2509C41.7137 48.9462 40.0622 50.2259 38.2247 50.6962C37.3934 50.904 35.6653 50.904 34.8341 50.6962C32.4934 50.0947 30.5028 48.1587 29.7919 45.7744C29.5184 44.8775 29.5184 42.9525 29.7919 42.0556C30.4919 39.715 32.3731 37.8447 34.6919 37.1775C35.5669 36.9259 37.3278 36.904 38.2247 37.1337ZM28.9825 40.0759C28.9825 40.0978 28.8622 40.3822 28.72 40.7103C28.5778 41.0384 28.37 41.7165 28.2606 42.2087L28.0747 43.0947L24.0169 43.0728L19.9591 43.04L19.9262 41.5306L19.8934 40.0322H24.4434C26.9372 40.0322 28.9825 40.054 28.9825 40.0759ZM28.2497 45.5119C28.3481 46.0587 28.6106 46.8681 28.8184 47.3165L29.1903 48.1259L25.8325 48.104L22.4747 48.0712L22.4419 46.2884L22.42 44.5165H25.2309H28.0528L28.2497 45.5119Z" fill="url(#paint3_linear_256_1301)"/>
<path d="M37.1764 42.9413L34.3764 45.7304L33.3811 44.4835C32.8233 43.7944 32.2764 43.2038 32.1451 43.171C31.5764 43.0179 31.0186 43.6085 31.2483 44.1007C31.4342 44.5054 33.7967 47.4038 34.0155 47.5132C34.1248 47.5679 34.3326 47.5788 34.4748 47.546C34.8686 47.4366 41.0155 41.2241 41.0155 40.9288C41.0155 40.6116 40.5451 40.1413 40.228 40.1413C40.053 40.1413 39.1889 40.9397 37.1764 42.9413Z" fill="url(#paint4_linear_256_1301)"/>
<path d="M46.2643 15.0619C45.9143 15.2041 43.1471 16.8666 43.0706 16.9869C42.8956 17.2713 42.9831 17.7088 43.2674 17.9275C43.4315 18.0588 43.6174 18.1572 43.6831 18.1572C43.9018 18.1572 46.8549 16.4291 47.0628 16.1775C47.3253 15.8604 47.2924 15.576 46.9753 15.2588C46.7128 14.9854 46.5706 14.9525 46.2643 15.0619Z" fill="url(#paint5_linear_256_1301)"/>
<defs>
<linearGradient id="paint0_linear_256_1301" x1="27.3186" y1="8.5605" x2="24.4713" y2="7.60527" gradientUnits="userSpaceOnUse">
<stop stop-color="#0060AA"/>
<stop offset="1" stop-color="#0E94FB"/>
</linearGradient>
<linearGradient id="paint1_linear_256_1301" x1="38.5686" y1="11.1684" x2="34.3992" y2="7.84392" gradientUnits="userSpaceOnUse">
<stop stop-color="#0060AA"/>
<stop offset="1" stop-color="#0E94FB"/>
</linearGradient>
<linearGradient id="paint2_linear_256_1301" x1="20.6354" y1="24.7514" x2="3.80636" y2="10.3013" gradientUnits="userSpaceOnUse">
<stop stop-color="#0060AA"/>
<stop offset="1" stop-color="#0E94FB"/>
</linearGradient>
<linearGradient id="paint3_linear_256_1301" x1="42.0968" y1="54.4115" x2="4.39789" y2="20.4994" gradientUnits="userSpaceOnUse">
<stop stop-color="#0060AA"/>
<stop offset="1" stop-color="#0E94FB"/>
</linearGradient>
<linearGradient id="paint4_linear_256_1301" x1="40.0865" y1="47.9657" x2="33.1387" y2="37.7807" gradientUnits="userSpaceOnUse">
<stop stop-color="#0060AA"/>
<stop offset="1" stop-color="#0E94FB"/>
</linearGradient>
<linearGradient id="paint5_linear_256_1301" x1="46.8359" y1="18.3277" x2="43.9066" y2="13.9448" gradientUnits="userSpaceOnUse">
<stop stop-color="#0060AA"/>
<stop offset="1" stop-color="#0E94FB"/>
</linearGradient>
</defs>
</svg>
