<svg width="24" height="24" viewBox="0 0 24 24" fill="none" xmlns="http://www.w3.org/2000/svg">
<path d="M8.93925 18.7052C7.02825 18.7052 5.2485 18.1449 3.75 17.1812C4.63626 17.2888 5.53505 17.2205 6.39488 16.9803C7.25471 16.74 8.05869 16.3324 8.76075 15.7809C8.05413 15.768 7.36929 15.5341 6.80233 15.1122C6.23537 14.6902 5.81476 14.1013 5.5995 13.4282C5.8065 13.4687 6.01875 13.4897 6.2355 13.4897C6.5445 13.4897 6.8445 13.4477 7.13025 13.3727C6.36423 13.2175 5.67536 12.8024 5.18031 12.1976C4.68526 11.5928 4.41446 10.8355 4.41375 10.0539V10.0097C4.88307 10.2711 5.40827 10.4162 5.94525 10.4327C5.48124 10.1235 5.10092 9.70439 4.83815 9.21262C4.57539 8.72086 4.43835 8.17173 4.43925 7.61417C4.43925 6.99617 4.608 6.41267 4.89825 5.91317C5.74822 6.95895 6.80867 7.81423 8.01072 8.42347C9.21278 9.0327 10.5295 9.38225 11.8755 9.44942C11.7069 8.72365 11.7822 7.96252 12.0898 7.2839C12.3975 6.60527 12.9203 6.047 13.5773 5.69552C14.2343 5.34404 14.9888 5.21897 15.7241 5.33967C16.4594 5.46037 17.1343 5.8201 17.6445 6.36317C18.4022 6.21318 19.1291 5.93575 19.794 5.54267C19.541 6.32642 19.0127 6.99198 18.3068 7.41617C18.9776 7.33608 19.6328 7.15662 20.2507 6.88367C19.795 7.56257 19.2233 8.15588 18.5618 8.63642C18.5677 8.78117 18.5723 8.92742 18.5723 9.07367C18.5715 13.5452 15.1657 18.7059 8.93925 18.7052Z" fill="#1D1D1F"/>
</svg>
